<?xml version="1.0" encoding="UTF-8" standalone="no"?>
<svg
   xmlns:dc="http://purl.org/dc/elements/1.1/"
   xmlns:cc="http://creativecommons.org/ns#"
   xmlns:rdf="http://www.w3.org/1999/02/22-rdf-syntax-ns#"
   xmlns:svg="http://www.w3.org/2000/svg"
   xmlns="http://www.w3.org/2000/svg"
   viewBox="0 0 403.18668 403.18668"
   height="403.18668"
   width="403.18668"
   xml:space="preserve"
   id="svg2"
   version="1.1"><metadata
     id="metadata8"><rdf:RDF><cc:Work
         rdf:about=""><dc:format>image/svg+xml</dc:format><dc:type
           rdf:resource="http://purl.org/dc/dcmitype/StillImage" /></cc:Work></rdf:RDF></metadata><defs
     id="defs6"><clipPath
       id="clipPath24"
       clipPathUnits="userSpaceOnUse"><path
         id="path22"
         d="m 2785.59,1511.95 c 0,-708.919 -574.71,-1283.63 -1283.64,-1283.63 -708.927,0 -1283.626,574.711 -1283.626,1283.63 0,708.94 574.699,1283.63 1283.626,1283.63 708.93,0 1283.64,-574.69 1283.64,-1283.63" /></clipPath></defs><g
     transform="matrix(1.3333333,0,0,-1.3333333,0,403.18667)"
     id="g10"><g
       transform="scale(0.1)"
       id="g12"><path
         id="path14"
         style="fill:#4559b1;fill-opacity:1;fill-rule:nonzero;stroke:none"
         d="m 2998.91,1511.95 h -25 C 2973.89,1108.17 2810.31,742.84 2545.71,478.199 2281.07,213.602 1915.74,50.0117 1511.95,50 1108.17,50.0117 742.836,213.602 478.195,478.199 213.598,742.84 50.0117,1108.17 50,1511.95 c 0.0117,403.79 163.598,769.12 428.195,1033.76 264.641,264.6 629.975,428.19 1033.755,428.2 403.79,-0.01 769.12,-163.6 1033.76,-428.2 264.6,-264.64 428.18,-629.97 428.2,-1033.76 h 25 25 C 3023.89,2346.99 2346.99,3023.89 1511.95,3023.91 676.914,3023.89 0.015625,2347 0,1511.95 0.015625,676.91 676.914,0.0195313 1511.95,0 2346.99,0.0195313 3023.89,676.91 3023.91,1511.95 h -25" /><path
         id="path16"
         style="fill:#e5e4e4;fill-opacity:1;fill-rule:nonzero;stroke:none"
         d="m 1501.95,228.32 c -708.927,0 -1283.626,574.711 -1283.626,1283.63 0,708.94 574.699,1283.63 1283.626,1283.63 708.93,0 1283.64,-574.69 1283.64,-1283.63 0,-708.919 -574.71,-1283.63 -1283.64,-1283.63" /><g
         id="g18"><g
           clip-path="url(#clipPath24)"
           id="g20"><path
             id="path26"
             style="fill:#ffffff;fill-opacity:1;fill-rule:nonzero;stroke:none"
             d="m 393.168,704.488 c 272.547,311.062 672.732,507.462 1118.782,507.462 440.51,0 836.28,-191.55 1108.56,-495.911 C 2737.64,585.121 2124.05,123.219 1511.95,119.941 894.293,116.621 278.035,573.09 393.168,704.488" /><path
             id="path28"
             style="fill:#4559b1;fill-opacity:1;fill-rule:nonzero;stroke:none"
             d="m 393.168,704.488 18.805,-16.468 c 268.047,305.871 661.357,498.92 1099.977,498.93 433.18,-0.01 822.14,-188.29 1089.93,-487.571 2.86,-3.231 4.73,-6.41 6.05,-10 1.31,-3.598 2.05,-7.688 2.06,-12.68 0.01,-6.801 -1.48,-15.277 -5,-25.129 -6.53,-18.48 -20.22,-41.449 -40.58,-66.41 -35.58,-43.808 -91.19,-93.82 -161.43,-143.449 -105.38,-74.531 -243.71,-148.512 -397.89,-203.832 -154.2,-55.348 -324.26,-92.051 -493.27,-92.938 -2.19,-0.011 -4.38,-0.019 -6.58,-0.019 -276.69,-0.113 -554.955,94.027 -762.74,208.418 -103.871,57.101 -190.156,119.281 -249.473,176.172 -29.656,28.386 -52.531,55.476 -67.449,79.226 -7.465,11.864 -12.933,22.864 -16.414,32.563 -3.5,9.699 -4.976,18.031 -4.969,24.711 0.008,4.808 0.723,8.769 1.973,12.258 1.266,3.492 3.059,6.589 5.805,9.742 l -18.805,16.476 -18.801,16.481 c -6.707,-7.641 -11.898,-16.41 -15.254,-25.789 -3.375,-9.371 -4.922,-19.258 -4.918,-29.168 0.012,-13.84 2.918,-27.723 7.918,-41.641 9.442,-26.09 26.192,-52.68 48.922,-80.34 39.82,-48.281 98.383,-99.742 171.41,-150.562 C 691.969,317.32 834.016,242.922 993.047,187.301 1152.06,131.719 1328.05,94.9414 1505.24,94.9219 c 2.28,0 4.56,0.0078 6.85,0.0195 286.2,1.6602 570.18,100.8286 783.94,220.5786 106.9,59.968 196.22,125.058 259.78,186.8 31.79,30.91 57.18,60.961 75.16,89.821 8.98,14.437 16.11,28.609 21.12,42.648 4.99,14.039 7.89,28.012 7.9,41.91 0.01,10.133 -1.59,20.231 -5.08,29.789 -3.47,9.563 -8.84,18.492 -15.77,26.223 C 2362.37,1042.14 1959.79,1236.96 1511.95,1236.95 1058.47,1236.96 651.406,1037.2 374.367,720.969 l 18.801,-16.481" /><path
             id="path30"
             style="fill:#ffffff;fill-opacity:1;fill-rule:nonzero;stroke:none"
             d="m 1965.58,1878.34 c 0,-250.53 -203.1,-453.62 -453.63,-453.62 -250.52,0 -453.62,203.09 -453.62,453.62 0,250.54 203.1,453.63 453.62,453.63 250.53,0 453.63,-203.09 453.63,-453.63" /><path
             id="path32"
             style="fill:#4559b1;fill-opacity:1;fill-rule:nonzero;stroke:none"
             d="m 1965.58,1878.34 h -25 c -0.02,-118.44 -47.94,-225.44 -125.55,-303.08 -77.64,-77.61 -184.64,-125.53 -303.08,-125.54 -118.44,0.01 -225.43,47.93 -303.08,125.54 -77.6,77.64 -125.53,184.64 -125.54,303.08 0.01,118.44 47.94,225.44 125.54,303.09 77.65,77.6 184.64,125.52 303.08,125.54 118.44,-0.02 225.44,-47.94 303.08,-125.54 77.61,-77.65 125.53,-184.65 125.55,-303.09 h 25 25 c -0.02,264.35 -214.28,478.61 -478.63,478.63 -264.34,-0.02 -478.6,-214.28 -478.62,-478.63 0.02,-264.35 214.28,-478.61 478.62,-478.62 264.35,0.01 478.61,214.27 478.63,478.62 h -25" /></g></g></g></g></svg>
